<svg xmlns="http://www.w3.org/2000/svg" viewBox="0 0 1441 1454"><g fill="none" stroke="#a484a4" stroke-width="2"><path d="M54.28 891.49c37.04 168.14 143.28 320.5 296.1 404.23q2.49 1.36 4.81.69a1 1 0 0 0 .52-1.56c-2.69-3.58-5.56-5.75-9.83-8.2C139.66 1168.43 28.45 936.39 47.29 702c20.59-256.25 190.72-471.42 425.24-568.92 97.96-40.73 204.14-60.13 309.91-57.99q65.82 1.33 133.21 10.44c2.85.39 5.67.25 8.46.01a1 1 0 0 0 .85-1.35c-1.71-4.52-11.08-6.57-15.24-7.26-181.73-30.42-368.31-2.28-528.74 89.12-105.61 60.16-197.3 151.73-256.49 256.98C45.26 563.91 19.37 732.99 54.28 891.49" vector-effect="non-scaling-stroke"/><path d="M231.62 1173.01a1 1 0 0 0 1.57-.62q.45-2.37-2.07-5.78c-70.8-96.02-126.4-200.18-149.8-318.17q-19.78-99.67-4.01-200.14c33.5-213.52 177.97-388.33 363.63-491.51 2.68-1.5 4.68-3.21 6.41-5.5q1.22-1.62-.81-1.6-4.27.05-8.07 2.05c-118.48 62.54-215.84 157.49-284.54 272.22-30.75 51.33-59.11 111.23-76.21 171.28-22.28 78.26-26.66 161.7-10.57 241.57q19.42 96.45 64.57 183.98c26.9 52.17 59.21 101.09 94.84 147.68q1.45 1.88 5.06 4.54" vector-effect="non-scaling-stroke"/><path d="M208.72 1001c-68.22-139.16-79.63-301.04-29.56-447.9 38.95-114.24 110.2-211.32 207.81-282.38q13.58-9.89 26-24.51c4.44-5.23 12.32-18.73-.34-19.66-15.9-1.17-34.4 9.87-47.63 19.09-158.93 110.61-255.68 297.85-256.49 491.55-.07 17.59 1.05 35.56 2.33 53.24 14.61 202.11 133.22 387.82 307.15 490.33 102.39 60.35 224.24 87.4 342.57 79.31 183.63-12.55 348.7-111.06 444.87-268.2 1.99-3.26 10.12-18.76 2.92-18.94-5.25-.13-13.17 9.37-15.84 13.43a.37.36-34.2 0 0-.06.28c.14 1.02 2.29-.81 2.63-1.03a.32.32 0 0 1 .41.04c.87.86-34.16 38.43-38.83 43.24-71.41 73.67-156.76 132.95-254.28 166.41-3.23 1.11-6.42 1.73-9.63 2.01q-58.86 5.2-117.91 3.63-12.11-.32-.06-1.59 60.59-6.42 114.74-24.82c121.35-41.24 214.99-130.83 267.98-247.48a1 1 0 0 0-.49-1.32l-2.09-.96a1.01 1 21 0 1-.54-1.21q.88-2.75-1.23-3.96a1 .99 46.5 0 0-.93-.03c-7.4 3.59-9.63 11.57-13.96 17.94-90.49 133.17-237.87 214.97-398.75 222.69-152.68 7.32-302.65-56.15-406.21-167.36q-6.8-7.3-13-15.2-61.93-78.79-91.76-174.89c-1.19-3.83-6.87-17.13-11.89-16.23q-1 .18-1.81.74a1.01 1 64.3 0 1-1.53-.54q-12.65-42.45-19.48-86.23-.93-5.99-4.84-14.07-.96-1.98-.9-4.04 1.96-74.15 25.18-144.24 4.37-13.18 1.54.42-17.65 84.97-4.76 169.17c16.37 106.95 67.51 206.47 148.28 278.94 89.65 80.44 212.72 124 333.37 107.07q2.72-.38 3.75-1.5 2.09-2.28-.66-3.7c-3.92-2.02-6.43-2.38-11.17-2.09-101.36 6.34-201.06-27.79-280.39-90.47-108.55-85.76-169.87-216.95-169.7-354.9q0-.11.02-.22c21.97-98.46 55.23-199.16 119.36-278.68 5.32-6.59 11.75-13.69 17.69-20.5 4.64-5.31 10.77-13.68 9.85-21.15q-.33-2.61-2.95-2.77c-5.44-.34-12.03 4.34-15.76 7.98q-38.56 37.71-65.59 84.39a.24.21 16.9 0 1-.23.1l-.15-.02a.19.15 16.6 0 1-.16-.24q31.82-53.8 76.19-97.61c8.78-8.67 18.22-15.7 28.26-22.55q25.11-17.14 51.82-31.6c6.74-3.65 19.72-11.99 19.56-20.73a1.01 1.01 0 0 1 .5-.89c88.16-50.89 190.52-74.87 291.76-69.28 148.64 8.2 285.99 76.66 387.41 184.85 3.78 4.03 13.48 12.35 19.4 11.09q4.17-.88 4.15-6.34c-.04-10.43-7.22-22.35-13.12-29.72-86.17-107.8-213.05-170.64-349.77-186.94q-50.34-6-95.95-4.39c-165.56 5.85-322.35 83.75-419.85 219.16-8.59 11.93-18.66 23.73-26.01 33.43q-34.61 45.62-58.39 97.72-.48 1.05-.11.02C317.43 287.86 653.5 145.83 950.17 216.11c151.86 35.97 282.94 128.95 369.33 259.14q6.59 9.94 12.99 20c1.53 2.41 9.8 10.85 9.36 1.63q-.52-11.14-5.09-19.13c-108.11-188.82-318.02-289.46-530.02-295.55q-10.23-.29-20-.39c-242.82-2.51-473.31 120.43-578.53 344.16-42.4 90.15-56.08 193.3-42.22 291.65q1.39 9.84 2.18 19.86 6.66 85.07 40.94 163.38a.21.15 61.1 0 1-.02.2l-.08.07a.23.16 59.2 0 1-.29-.13" vector-effect="non-scaling-stroke"/><path d="M166.62 1045.65q-1.59.49-2.26-.73c-68.82-125.78-90.32-275.87-64.1-417.06q2.08-11.22 4-22.45.77-4.55.19-7.14c-1.13-5.04-4.21-2.23-5.45.2q-2.93 5.66-4.51 13.03-6.81 31.57-10.09 58.77c-16.2 134.18 10.86 270.27 77.75 387.64 4.21 7.39 8.05 16.67 12.61 23.81 66.03 103.42 157.7 185.09 268.68 237.48 104.12 49.15 219.74 74.88 335.13 69.92 111.87-4.81 222.87-39.68 312.69-107.6 37.54-28.39 72.42-60.58 105.21-94.29 30.74-31.61 60.7-69.07 78.79-108.22q20.56-44.5 31.75-97.51.46-2.14-.47-9.35a.99.98 6.9 0 0-.64-.81c-4.23-1.57-4.29 1.24-4.91 4.21q-10.02 48.09-26.58 94.31c-2.51 6.99-5.46 12.01-9.39 18.16-66.16 103.8-157.31 186.22-265.96 243.39q-7.99 4.21-16.17 7.1c-92.81 32.88-193.28 35.62-290.45 29.58-169.26-10.51-326.92-95.48-439.86-219.69q-4.54-4.99-7.85-9.39c-48.73-64.87-85.4-138.91-109.78-216.21-1.75-5.52-4.94-14.51-10.16-17.22a1 .98-35.4 0 0-.64-.1c-6.97 1.25-1.37 21 .35 27.12q16.31 57.75 42.73 111.65a1.01 1-21.6 0 1-.61 1.4" vector-effect="non-scaling-stroke"/><path d="M272.78 875.99c24.63 95.55 87.64 184.69 178.11 228.65q2.69 1.31 5.68 1.1a1 1 0 0 0 .85-1.39c-1.49-3.46-3.65-5.66-7.18-7.49-115.27-59.69-175.18-186.5-180.51-311.61q-.56-13-.82-26-.09-4.91-2.52-9.18-2.02-3.56-3.97-.31c-3.14 5.23-2.83 8.93-2.91 16.43q-.65 55.78 13.27 109.8m123.85 436.78c1.39 2.51 4.63 4.88 7.2 5.96 78.47 32.96 161.02 62.28 244.83 78.19 2.34.44 9.73 1.19 10.26-1.43a.99.98 22.6 0 0-.43-1.03q-2.34-1.54-3.48-1.75c-88.71-16.79-171.95-46.83-254.96-81.58q-2.77-1.17-3.49.81a1.02 1.02 0 0 0 .07.83m21.61-79.02q136.41 85.65 297.27 89.49 38.92.93 81.02-4.25 3.52-.43-.02-.52-.88-.02-1.76.04c-17.3 1.19-33.63 1.01-51.8.61-72.03-1.58-146.84-13.95-214.52-39.1-38.04-14.14-74.08-26.28-110.87-47.13q-.45-.26-.31.24c.07.23.88.55.99.62" vector-effect="non-scaling-stroke"/></g><path fill="#fefefe" d="M0 0h1441v1454H0V0Zm54.28 891.49c37.04 168.14 143.28 320.5 296.1 404.23q2.49 1.36 4.81.69a1 1 0 0 0 .52-1.56c-2.69-3.58-5.56-5.75-9.83-8.2C139.66 1168.43 28.45 936.39 47.29 702c20.59-256.25 190.72-471.42 425.24-568.92 97.96-40.73 204.14-60.13 309.91-57.99q65.82 1.33 133.21 10.44c2.85.39 5.67.25 8.46.01a1 1 0 0 0 .85-1.35c-1.71-4.52-11.08-6.57-15.24-7.26-181.73-30.42-368.31-2.28-528.74 89.12-105.61 60.16-197.3 151.73-256.49 256.98C45.26 563.91 19.37 732.99 54.28 891.49Zm177.34 281.52a1 1 0 0 0 1.57-.62q.45-2.37-2.07-5.78c-70.8-96.02-126.4-200.18-149.8-318.17q-19.78-99.67-4.01-200.14c33.5-213.52 177.97-388.33 363.63-491.51 2.68-1.5 4.68-3.21 6.41-5.5q1.22-1.62-.81-1.6-4.27.05-8.07 2.05c-118.48 62.54-215.84 157.49-284.54 272.22-30.75 51.33-59.11 111.23-76.21 171.28-22.28 78.26-26.66 161.7-10.57 241.57q19.42 96.45 64.57 183.98c26.9 52.17 59.21 101.09 94.84 147.68q1.45 1.88 5.06 4.54ZM208.72 1001c-68.22-139.16-79.63-301.04-29.56-447.9 38.95-114.24 110.2-211.32 207.81-282.38q13.58-9.89 26-24.51c4.44-5.23 12.32-18.73-.34-19.66-15.9-1.17-34.4 9.87-47.63 19.09-158.93 110.61-255.68 297.85-256.49 491.55-.07 17.59 1.05 35.56 2.33 53.24 14.61 202.11 133.22 387.82 307.15 490.33 102.39 60.35 224.24 87.4 342.57 79.31 183.63-12.55 348.7-111.06 444.87-268.2 1.99-3.26 10.12-18.76 2.92-18.94-5.25-.13-13.17 9.37-15.84 13.43a.37.36-34.2 0 0-.06.28c.14 1.02 2.29-.81 2.63-1.03a.32.32 0 0 1 .41.04c.87.86-34.16 38.43-38.83 43.24-71.41 73.67-156.76 132.95-254.28 166.41-3.23 1.11-6.42 1.73-9.63 2.01q-58.86 5.2-117.91 3.63-12.11-.32-.06-1.59 60.59-6.42 114.74-24.82c121.35-41.24 214.99-130.83 267.98-247.48a1 1 0 0 0-.49-1.32l-2.09-.96a1.01 1 21 0 1-.54-1.21q.88-2.75-1.23-3.96a1 .99 46.5 0 0-.93-.03c-7.4 3.59-9.63 11.57-13.96 17.94-90.49 133.17-237.87 214.97-398.75 222.69-152.68 7.32-302.65-56.15-406.21-167.36q-6.8-7.3-13-15.2-61.93-78.79-91.76-174.89c-1.19-3.83-6.87-17.13-11.89-16.23q-1 .18-1.81.74a1.01 1 64.3 0 1-1.53-.54q-12.65-42.45-19.48-86.23-.93-5.99-4.84-14.07-.96-1.98-.9-4.04 1.96-74.15 25.18-144.24 4.37-13.18 1.54.42-17.65 84.97-4.76 169.17c16.37 106.95 67.51 206.47 148.28 278.94 89.65 80.44 212.72 124 333.37 107.07q2.72-.38 3.75-1.5 2.09-2.28-.66-3.7c-3.92-2.02-6.43-2.38-11.17-2.09-101.36 6.34-201.06-27.79-280.39-90.47-108.55-85.76-169.87-216.95-169.7-354.9q0-.11.02-.22c21.97-98.46 55.23-199.16 119.36-278.68 5.32-6.59 11.75-13.69 17.69-20.5 4.64-5.31 10.77-13.68 9.85-21.15q-.33-2.61-2.95-2.77c-5.44-.34-12.03 4.34-15.76 7.98q-38.56 37.71-65.59 84.39a.24.21 16.9 0 1-.23.1l-.15-.02a.19.15 16.6 0 1-.16-.24q31.82-53.8 76.19-97.61c8.78-8.67 18.22-15.7 28.26-22.55q25.11-17.14 51.82-31.6c6.74-3.65 19.72-11.99 19.56-20.73a1.01 1.01 0 0 1 .5-.89c88.16-50.89 190.52-74.87 291.76-69.28 148.64 8.2 285.99 76.66 387.41 184.85 3.78 4.03 13.48 12.35 19.4 11.09q4.17-.88 4.15-6.34c-.04-10.43-7.22-22.35-13.12-29.72-86.17-107.8-213.05-170.64-349.77-186.94q-50.34-6-95.95-4.39c-165.56 5.85-322.35 83.75-419.85 219.16-8.59 11.93-18.66 23.73-26.01 33.43q-34.61 45.62-58.39 97.72-.48 1.05-.11.02C317.43 287.86 653.5 145.83 950.17 216.11c151.86 35.97 282.94 128.95 369.33 259.14q6.59 9.94 12.99 20c1.53 2.41 9.8 10.85 9.36 1.63q-.52-11.14-5.09-19.13c-108.11-188.82-318.02-289.46-530.02-295.55q-10.23-.29-20-.39c-242.82-2.51-473.31 120.43-578.53 344.16-42.4 90.15-56.08 193.3-42.22 291.65q1.39 9.84 2.18 19.86 6.66 85.07 40.94 163.38a.21.15 61.1 0 1-.02.2l-.08.07a.23.16 59.2 0 1-.29-.13Zm-42.1 44.65q-1.59.49-2.26-.73c-68.82-125.78-90.32-275.87-64.1-417.06q2.08-11.22 4-22.45.77-4.55.19-7.14c-1.13-5.04-4.21-2.23-5.45.2q-2.93 5.66-4.51 13.03-6.81 31.57-10.09 58.77c-16.2 134.18 10.86 270.27 77.75 387.64 4.21 7.39 8.05 16.67 12.61 23.81 66.03 103.42 157.7 185.09 268.68 237.48 104.12 49.15 219.74 74.88 335.13 69.92 111.87-4.81 222.87-39.68 312.69-107.6 37.54-28.39 72.42-60.58 105.21-94.29 30.74-31.61 60.7-69.07 78.79-108.22q20.56-44.5 31.75-97.51.46-2.14-.47-9.35a.99.98 6.9 0 0-.64-.81c-4.23-1.57-4.29 1.24-4.91 4.21q-10.02 48.09-26.58 94.31c-2.51 6.99-5.46 12.01-9.39 18.16-66.16 103.8-157.31 186.22-265.96 243.39q-7.99 4.21-16.17 7.1c-92.81 32.88-193.28 35.62-290.45 29.58-169.26-10.51-326.92-95.48-439.86-219.69q-4.54-4.99-7.85-9.39c-48.73-64.87-85.4-138.91-109.78-216.21-1.75-5.52-4.94-14.51-10.16-17.22a1 .98-35.4 0 0-.64-.1c-6.97 1.25-1.37 21 .35 27.12q16.31 57.75 42.73 111.65a1.01 1-21.6 0 1-.61 1.4Zm106.16-169.66c24.63 95.55 87.64 184.69 178.11 228.65q2.69 1.31 5.68 1.1a1 1 0 0 0 .85-1.39c-1.49-3.46-3.65-5.66-7.18-7.49-115.27-59.69-175.18-186.5-180.51-311.61q-.56-13-.82-26-.09-4.91-2.52-9.18-2.02-3.56-3.97-.31c-3.14 5.23-2.83 8.93-2.91 16.43q-.65 55.78 13.27 109.8Zm123.85 436.78c1.39 2.51 4.63 4.88 7.2 5.96 78.47 32.96 161.02 62.28 244.83 78.19 2.34.44 9.73 1.19 10.26-1.43a.99.98 22.6 0 0-.43-1.03q-2.34-1.54-3.48-1.75c-88.71-16.79-171.95-46.83-254.96-81.58q-2.77-1.17-3.49.81a1.02 1.02 0 0 0 .07.83Z"/><path fill="#4a0a49" d="M350.38 1295.72c-152.82-83.73-259.06-236.09-296.1-404.23-34.91-158.5-9.02-327.58 70.21-468.46 59.19-105.25 150.88-196.82 256.49-256.98 160.43-91.4 347.01-119.54 528.74-89.12 4.16.69 13.53 2.74 15.24 7.26a1 1 0 0 1-.85 1.35c-2.79.24-5.61.38-8.46-.01q-67.39-9.11-133.21-10.44c-105.77-2.14-211.95 17.26-309.91 57.99C238.01 230.58 67.88 445.75 47.29 702c-18.84 234.39 92.37 466.43 298.59 584.65 4.27 2.45 7.14 4.62 9.83 8.2a1 1 0 0 1-.52 1.56q-2.32.67-4.81-.69Z"/><path fill="#4a0a49" d="M231.62 1173.01q-3.61-2.66-5.06-4.54c-35.63-46.59-67.94-95.51-94.84-147.68q-45.15-87.53-64.57-183.98C51.06 756.94 55.44 673.5 77.72 595.24c17.1-60.05 45.46-119.95 76.21-171.28 68.7-114.73 166.06-209.68 284.54-272.22q3.8-2 8.07-2.05 2.03-.02.81 1.6c-1.73 2.29-3.73 4-6.41 5.5C255.28 259.97 110.81 434.78 77.31 648.3q-15.77 100.47 4.01 200.14c23.4 117.99 79 222.15 149.8 318.17q2.52 3.41 2.07 5.78a1 1 0 0 1-1.57.62Z"/><path fill="#4a0a49" d="m209.01 1001.13.08-.07a.21.15 61.1 0 0 .02-.2q-34.28-78.31-40.94-163.38-.79-10.02-2.18-19.86c-13.86-98.35-.18-201.5 42.22-291.65C313.43 302.24 543.92 179.3 786.74 181.81q9.77.1 20 .39c212 6.09 421.91 106.73 530.02 295.55q4.57 7.99 5.09 19.13c.44 9.22-7.83.78-9.36-1.63q-6.4-10.06-12.99-20c-86.39-130.19-217.47-223.17-369.33-259.14-296.67-70.28-632.74 71.75-738.71 370.08q-.37 1.03.11-.02 23.78-52.1 58.39-97.72c7.35-9.7 17.42-21.5 26.01-33.43 97.5-135.41 254.29-213.31 419.85-219.16q45.61-1.61 95.95 4.39c136.72 16.3 263.6 79.14 349.77 186.94 5.9 7.37 13.08 19.29 13.12 29.72q.02 5.46-4.15 6.34c-5.92 1.26-15.62-7.06-19.4-11.09-101.42-108.19-238.77-176.65-387.41-184.85-101.24-5.59-203.6 18.39-291.76 69.28a1.01 1.01 0 0 0-.5.89c.16 8.74-12.82 17.08-19.56 20.73q-26.71 14.46-51.82 31.6c-10.04 6.85-19.48 13.88-28.26 22.55q-44.37 43.81-76.19 97.61a.19.15 16.6 0 0 .16.24l.15.02a.24.21 16.9 0 0 .23-.1q27.03-46.68 65.59-84.39c3.73-3.64 10.32-8.32 15.76-7.98q2.62.16 2.95 2.77c.92 7.47-5.21 15.84-9.85 21.15-5.94 6.81-12.37 13.91-17.69 20.5-64.13 79.52-97.39 180.22-119.36 278.68q-.02.11-.02.22c-.17 137.95 61.15 269.14 169.7 354.9 79.33 62.68 179.03 96.81 280.39 90.47 4.74-.29 7.25.07 11.17 2.09q2.75 1.42.66 3.7-1.03 1.12-3.75 1.5c-120.65 16.93-243.72-26.63-333.37-107.07-80.77-72.47-131.91-171.99-148.28-278.94q-12.89-84.2 4.76-169.17 2.83-13.6-1.54-.42-23.22 70.09-25.18 144.24-.06 2.06.9 4.04 3.91 8.08 4.84 14.07 6.83 43.78 19.48 86.23a1.01 1 64.3 0 0 1.53.54q.81-.56 1.81-.74c5.02-.9 10.7 12.4 11.89 16.23q29.83 96.1 91.76 174.89 6.2 7.9 13 15.2c103.56 111.21 253.53 174.68 406.21 167.36 160.88-7.72 308.26-89.52 398.75-222.69 4.33-6.37 6.56-14.35 13.96-17.94a1 .99 46.5 0 1 .93.03q2.11 1.21 1.23 3.96a1.01 1 21 0 0 .54 1.21l2.09.96a1 1 0 0 1 .49 1.32c-52.99 116.65-146.63 206.24-267.98 247.48q-54.15 18.4-114.74 24.82-12.05 1.27.06 1.59 59.05 1.57 117.91-3.63c3.21-.28 6.4-.9 9.63-2.01 97.52-33.46 182.87-92.74 254.28-166.41 4.67-4.81 39.7-42.38 38.83-43.24a.32.32 0 0 0-.41-.04c-.34.22-2.49 2.05-2.63 1.03a.37.36-34.2 0 1 .06-.28c2.67-4.06 10.59-13.56 15.84-13.43 7.2.18-.93 15.68-2.92 18.94-96.17 157.14-261.24 255.65-444.87 268.2-118.33 8.09-240.18-18.96-342.57-79.31-173.93-102.51-292.54-288.22-307.15-490.33-1.28-17.68-2.4-35.65-2.33-53.24.81-193.7 97.56-380.94 256.49-491.55 13.23-9.22 31.73-20.26 47.63-19.09 12.66.93 4.78 14.43.34 19.66q-12.42 14.62-26 24.51c-97.61 71.06-168.86 168.14-207.81 282.38-50.07 146.86-38.66 308.74 29.56 447.9a.23.16 59.2 0 0 .29.13Zm209.23 232.62q136.41 85.65 297.27 89.49 38.92.93 81.02-4.25 3.52-.43-.02-.52-.88-.02-1.76.04c-17.3 1.19-33.63 1.01-51.8.61-72.03-1.58-146.84-13.95-214.52-39.1-38.04-14.14-74.08-26.28-110.87-47.13q-.45-.26-.31.24c.07.23.88.55.99.62Z"/><path fill="#4a0a49" d="M167.23 1044.25q-26.42-53.9-42.73-111.65c-1.72-6.12-7.32-25.87-.35-27.12a1 .98-35.4 0 1 .64.1c5.22 2.71 8.41 11.7 10.16 17.22 24.38 77.3 61.05 151.34 109.78 216.21q3.31 4.4 7.85 9.39c112.94 124.21 270.6 209.18 439.86 219.69 97.17 6.04 197.64 3.3 290.45-29.58q8.18-2.89 16.17-7.1c108.65-57.17 199.8-139.59 265.96-243.39 3.93-6.15 6.88-11.17 9.39-18.16q16.56-46.22 26.58-94.31c.62-2.97.68-5.78 4.91-4.21a.99.98 6.9 0 1 .64.81q.93 7.21.47 9.35-11.19 53.01-31.75 97.51c-18.09 39.15-48.05 76.61-78.79 108.22-32.79 33.71-67.67 65.9-105.21 94.29-89.82 67.92-200.82 102.79-312.69 107.6-115.39 4.96-231.01-20.77-335.13-69.92-110.98-52.39-202.65-134.06-268.68-237.48-4.56-7.14-8.4-16.42-12.61-23.81C95.26 940.54 68.2 804.45 84.4 670.27q3.28-27.2 10.09-58.77 1.58-7.37 4.51-13.03c1.24-2.43 4.32-5.24 5.45-.2q.58 2.59-.19 7.14-1.92 11.23-4 22.45c-26.22 141.19-4.72 291.28 64.1 417.06q.67 1.22 2.26.73a1.01 1-21.6 0 0 .61-1.4Z"/><path fill="#4a0a49" d="M450.89 1104.64c-90.47-43.96-153.48-133.1-178.11-228.65q-13.92-54.02-13.27-109.8c.08-7.5-.23-11.2 2.91-16.43q1.95-3.25 3.97.31 2.43 4.27 2.52 9.18.26 13 .82 26c5.33 125.11 65.24 251.92 180.51 311.61 3.53 1.83 5.69 4.03 7.18 7.49a1 1 0 0 1-.85 1.39q-2.99.21-5.68-1.1Z"/><path fill="#fefefe" d="M418.24 1233.75c-.11-.07-.92-.39-.99-.62q-.14-.5.31-.24c36.79 20.85 72.83 32.99 110.87 47.13 67.68 25.15 142.49 37.52 214.52 39.1 18.17.4 34.5.58 51.8-.61q.88-.06 1.76-.04 3.54.09.02.52-42.1 5.18-81.02 4.25-160.86-3.84-297.27-89.49Z"/><path fill="#4a0a49" d="M403.83 1318.73c-2.57-1.08-5.81-3.45-7.2-5.96a1.02 1.02 0 0 1-.07-.83q.72-1.98 3.49-.81c83.01 34.75 166.25 64.79 254.96 81.58q1.14.21 3.48 1.75a.99.98 22.6 0 1 .43 1.03c-.53 2.62-7.92 1.87-10.26 1.43-83.81-15.91-166.36-45.23-244.83-78.19Z"/></svg>